<svg width="24" height="24" viewBox="0 0 24 24" fill="none" xmlns="http://www.w3.org/2000/svg">
<path fill-rule="evenodd" clip-rule="evenodd" d="M14.6663 3.11115C14.1754 3.11115 13.7774 3.50911 13.7774 4.00003C13.7774 4.49095 14.1754 4.88892 14.6663 4.88892H17.8539L13.1491 9.59372C12.802 9.94085 12.802 10.5037 13.1491 10.8508C13.4962 11.1979 14.059 11.1979 14.4062 10.8508L19.1107 6.14622V9.33337C19.1107 9.82429 19.5087 10.2223 19.9996 10.2223C20.4905 10.2223 20.8885 9.82429 20.8885 9.33337V4.0198C20.8937 3.78577 20.807 3.55009 20.6284 3.37149C20.5207 3.26377 20.3922 3.18947 20.2558 3.14861C20.1747 3.12424 20.0887 3.11115 19.9996 3.11115H14.6663ZM4.88868 14.6668C4.88868 14.1759 4.49071 13.7779 3.99979 13.7779C3.50887 13.7779 3.1109 14.1759 3.1109 14.6668V20.0001V20.0001C3.1109 20.1256 3.1369 20.245 3.1838 20.3532C3.22011 20.4372 3.26999 20.5167 3.33342 20.5884C3.3584 20.6167 3.38514 20.6433 3.41347 20.6682C3.48036 20.727 3.55397 20.7741 3.63161 20.8094C3.74379 20.8605 3.86847 20.889 3.99979 20.889H9.33312C9.82404 20.889 10.222 20.491 10.222 20.0001C10.222 19.5092 9.82404 19.1112 9.33312 19.1112H6.14573L10.8506 14.4064C11.1977 14.0593 11.1977 13.4965 10.8506 13.1493C10.5034 12.8022 9.94061 12.8022 9.59347 13.1493L4.88868 17.8541V14.6668Z" fill="white"/>
</svg>
